<?xml version="1.0" encoding="UTF-8" standalone="no"?>
<!DOCTYPE svg PUBLIC "-//W3C//DTD SVG 1.1//EN" "http://www.w3.org/Graphics/SVG/1.1/DTD/svg11.dtd">
<svg width="100%" height="100%" viewBox="0 0 1500 1500" version="1.1"
    xmlns="http://www.w3.org/2000/svg"
    xmlns:xlink="http://www.w3.org/1999/xlink" xml:space="preserve"
    xmlns:serif="http://www.serif.com/" style="fill-rule:evenodd;clip-rule:evenodd;stroke-linejoin:round;stroke-miterlimit:2;">
    <g transform="matrix(0.976698,0,0,1.16684,-460.739,-1685.31)">
        <path d="M1837.72,2034C1857.76,2034 1874,2047.6 1874,2064.37L1874,2534.63C1874,2542.69 1870.18,2550.41 1863.37,2556.11C1856.57,2561.8 1847.34,2565 1837.72,2565C1679.81,2565 1053.19,2565 895.278,2565C885.657,2565 876.429,2561.8 869.626,2556.11C862.822,2550.41 859,2542.69 859,2534.63C859,2421.93 859,2007.21 859,1984.72C859,1967.95 875.242,1954.35 895.278,1954.35C981.811,1954.35 1197.49,1954.35 1256.32,1954.35C1265.94,1954.35 1275.17,1957.55 1281.97,1963.24C1300.28,1978.57 1337.57,2009.78 1355.87,2025.11C1362.68,2030.8 1371.9,2034 1381.53,2034C1450.28,2034 1735.88,2034 1837.72,2034Z" style="fill:rgb(16,16,16);"/>
    </g>
    <g transform="matrix(1.19382,0,0,1.17877,-895.084,-649.277)">
        <path d="M1348.32,714C1356.19,714 1363.74,717.167 1369.31,722.804C1374.87,728.441 1378,736.087 1378,744.059C1378,868.208 1378,1341.98 1378,1501.91C1378,1512.74 1372.25,1522.73 1362.94,1528.07C1353.64,1533.4 1342.22,1533.26 1333.05,1527.68C1273.67,1491.6 1172.12,1429.9 1133.77,1406.59C1124.37,1400.88 1112.63,1400.88 1103.23,1406.59C1064.88,1429.9 963.332,1491.6 903.951,1527.68C894.782,1533.26 883.362,1533.4 874.057,1528.07C864.752,1522.73 859,1512.74 859,1501.91L859,744.059C859,736.087 862.127,728.441 867.693,722.804C873.259,717.167 880.809,714 888.68,714L1348.32,714Z" style="fill:rgb(170,170,170);"/>
    </g>
    <g transform="matrix(0.976698,0,0,1.16684,-460.739,-1685.31)">
        <path d="M859,2331.36L859,1986.21C859,1977.76 863.01,1969.66 870.148,1963.68C877.286,1957.71 886.968,1954.35 897.063,1954.35L1239.62,1954.35L1239.62,2402.53C1239.62,2414.01 1232.25,2424.6 1220.32,2430.25C1208.38,2435.91 1193.74,2435.75 1181.98,2429.85L942.02,2309.34C929.967,2303.28 914.908,2303.28 902.855,2309.34L859,2331.36Z" style="fill:rgb(85,85,85);"/>
    </g>
</svg>
